HIERARCHY
ROOT Hips
{
	OFFSET -0.001795 -0.223333 0.028219
	CHANNELS 6 Xposition Yposition Zposition Zrotation Yrotation Xrotation 
	JOINT LeftUpLeg
	{
		OFFSET 0.069520 -0.091406 -0.006815
		CHANNELS 3 Zrotation Yrotation Xrotation
		JOINT LeftLeg
		{
			OFFSET 0.034277 -0.375199 -0.004496
			CHANNELS 3 Zrotation Yrotation Xrotation
			JOINT LeftFoot
			{
				OFFSET -0.013596 -0.397961 -0.043693
				CHANNELS 3 Zrotation Yrotation Xrotation
				JOINT LeftToe
				{
					OFFSET 0.026358 -0.055791 0.119288
					CHANNELS 3 Zrotation Yrotation Xrotation
					End Site
					{
						OFFSET 0.000000 0.000000 0.000000
					}
				}
			}
		}
	}
	JOINT RightUpLeg
	{
		OFFSET -0.067670 -0.090522 -0.004320
		CHANNELS 3 Zrotation Yrotation Xrotation
		JOINT RightLeg
		{
			OFFSET -0.038290 -0.382569 -0.008850
			CHANNELS 3 Zrotation Yrotation Xrotation
			JOINT RightFoot
			{
				OFFSET 0.015774 -0.398415 -0.042312
				CHANNELS 3 Zrotation Yrotation Xrotation
				JOINT RightToe
				{
					OFFSET -0.025372 -0.048144 0.123348
					CHANNELS 3 Zrotation Yrotation Xrotation
					End Site
					{
						OFFSET 0.000000 0.000000 0.000000
					}
				}
			}
		}
	}
	JOINT Spine
	{
		OFFSET -0.002533 0.108963 -0.026696
		CHANNELS 3 Zrotation Yrotation Xrotation
		JOINT Spine1
		{
			OFFSET 0.005487 0.135180 0.001092
			CHANNELS 3 Zrotation Yrotation Xrotation
			JOINT Spine2
			{
				OFFSET 0.001457 0.052922 0.025425
				CHANNELS 3 Zrotation Yrotation Xrotation
				JOINT Neck
				{
					OFFSET -0.002778 0.213870 -0.042857
					CHANNELS 3 Zrotation Yrotation Xrotation
					JOINT Head
					{
						OFFSET 0.005152 0.064970 0.051349
						CHANNELS 3 Zrotation Yrotation Xrotation
						End Site
						{
							OFFSET 0.000000 0.000000 0.000000
						}
					}
				}
				JOINT LeftShoulder
				{
					OFFSET 0.078845 0.121749 -0.034090
					CHANNELS 3 Zrotation Yrotation Xrotation
					JOINT LeftArm
					{
						OFFSET 0.090977 0.030469 -0.008868
						CHANNELS 3 Zrotation Yrotation Xrotation
						JOINT LeftForeArm
						{
							OFFSET 0.259612 -0.012772 -0.027456
							CHANNELS 3 Zrotation Yrotation Xrotation
							JOINT LeftHand
							{
								OFFSET 0.249234 0.008986 -0.001171
								CHANNELS 3 Zrotation Yrotation Xrotation
								End Site
								{
									OFFSET 0.000000 0.000000 0.000000
								}
							}
						}
					}
				}
				JOINT RightShoulder
				{
					OFFSET -0.081759 0.118833 -0.038615
					CHANNELS 3 Zrotation Yrotation Xrotation
					JOINT RightArm
					{
						OFFSET -0.096012 0.032551 -0.009143
						CHANNELS 3 Zrotation Yrotation Xrotation
						JOINT RightForeArm
						{
							OFFSET -0.253742 -0.013329 -0.021401
							CHANNELS 3 Zrotation Yrotation Xrotation
							JOINT RightHand
							{
								OFFSET -0.255298 0.007772 -0.005559
								CHANNELS 3 Zrotation Yrotation Xrotation
								End Site
								{
									OFFSET 0.000000 0.000000 0.000000
								}
							}
						}
					}
				}
			}
		}
	}
}
MOTION
Frames: 10
Frame Time: 0.050000
0.006304 0.952713 -0.040163 -3.723946 7.037536 9.918213 5.698667 -0.410452 -2.976047 6.768244 0.520745 -13.787084 -0.318983 7.015242 18.279376 0.000000 0.000000 0.000000 -1.795217 1.090074 -12.752831 -2.418503 0.386331 1.991656 0.813236 -4.129122 18.424808 0.000000 0.000000 0.000000 -2.083333 0.081280 -0.053025 4.137836 -1.484850 -5.283996 4.051972 -10.218067 -11.794065 -4.324070 3.175504 -7.345183 0.000000 0.000000 0.000000 13.290179 -27.178226 7.672907 14.513817 -33.190196 -3.947903 34.355845 -15.569735 -3.216870 0.000000 0.000000 0.000000 -29.831897 31.227688 7.135819 -34.894382 37.443840 -13.903910 -36.151271 8.220164 -1.752353 0.000000 0.000000 0.000000 
0.005996 0.952531 -0.041011 -3.840734 6.874865 10.055258 5.841513 -0.419952 -3.105140 6.757647 0.528912 -13.866631 -0.216678 7.144688 18.316447 0.000000 0.000000 0.000000 -1.620869 1.098049 -12.633205 -2.294880 0.339809 1.440922 0.596271 -4.482736 18.235793 0.000000 0.000000 0.000000 -1.794683 0.070087 -0.015219 4.243360 -1.507961 -5.543179 3.693208 -9.673959 -11.308488 -3.801483 2.841126 -8.124047 0.000000 0.000000 0.000000 12.684563 -27.384430 7.844628 14.705515 -33.274397 -4.060081 36.302102 -14.849614 -3.282717 0.000000 0.000000 0.000000 -29.571114 32.080211 7.091624 -34.871782 37.828611 -13.869973 -37.373085 6.437236 -1.241625 0.000000 0.000000 0.000000 
0.005743 0.952773 -0.041978 -3.700222 6.672088 10.161277 5.826917 -0.417488 -3.069667 6.495133 0.545755 -14.128981 -0.167603 7.249438 18.553089 0.000000 0.000000 0.000000 -1.801435 1.071648 -12.412750 -1.756801 0.238649 0.779538 -0.033287 -5.569794 18.113373 0.000000 0.000000 0.000000 -1.881947 0.072094 0.089147 4.197147 -1.498959 -5.438537 3.712077 -9.059466 -11.371150 -3.652616 2.748345 -9.128411 0.000000 0.000000 0.000000 11.802675 -27.944323 8.196512 14.994157 -33.548814 -4.219316 38.581992 -14.384756 -3.426218 0.000000 0.000000 0.000000 -28.928562 32.559051 7.143619 -34.621545 38.764977 -14.037243 -38.820924 5.133250 -0.847132 0.000000 0.000000 0.000000 
0.005491 0.952539 -0.043196 -3.581836 7.067313 10.290749 6.033068 -0.435488 -3.215629 5.982145 0.550756 -14.423616 -0.384176 7.014413 18.605740 0.000000 0.000000 0.000000 -1.820635 1.063070 -12.372159 -1.393812 0.180374 0.452795 -1.004298 -7.135813 18.016065 0.000000 0.000000 0.000000 -1.964796 0.072386 0.237267 4.413280 -1.590110 -5.375639 3.315713 -8.860171 -11.180906 -3.042349 2.394441 -9.763242 0.000000 0.000000 0.000000 11.153048 -28.034168 8.350342 15.552146 -34.732209 -4.601069 40.652875 -13.829103 -3.514993 0.000000 0.000000 0.000000 -27.939850 32.915294 7.228454 -33.926338 39.463001 -13.915396 -40.118963 4.278496 -0.566614 0.000000 0.000000 0.000000 
0.005223 0.952643 -0.044573 -3.447669 7.398951 10.372827 6.031387 -0.448474 -3.441859 5.787467 0.545097 -14.471687 -0.583795 6.807957 18.681962 0.000000 0.000000 0.000000 -1.931792 1.030313 -12.069375 -1.013487 0.103301 -0.273142 -1.720260 -8.308777 18.090450 0.000000 0.000000 0.000000 -1.986379 0.072857 0.256226 4.559561 -1.677847 -5.045662 3.060409 -8.282652 -11.441407 -2.783811 2.270484 -10.038438 0.000000 0.000000 0.000000 10.504217 -28.702182 8.690101 16.161611 -35.882578 -5.035109 42.360380 -13.203487 -3.547894 0.000000 0.000000 0.000000 -26.018733 33.536387 7.515123 -32.970671 40.691975 -13.845634 -41.111344 4.271426 -0.508189 0.000000 0.000000 0.000000 
0.004917 0.952235 -0.045864 -3.412110 7.556713 10.356188 6.180407 -0.448839 -3.280065 5.498406 0.564599 -14.941125 -0.688013 6.711230 18.781937 0.000000 0.000000 0.000000 -2.020862 1.009454 -11.887000 -0.601098 0.038052 -0.724346 -2.242010 -9.175328 18.141527 0.000000 0.000000 0.000000 -2.137298 0.076805 0.353852 4.781916 -1.795685 -4.780550 2.887810 -7.801849 -11.242798 -2.408746 2.076190 -10.475188 0.000000 0.000000 0.000000 9.687070 -28.802005 8.869602 16.724823 -37.039077 -5.463611 43.767075 -12.146613 -3.375272 0.000000 0.000000 0.000000 -23.989471 33.934339 7.831114 -31.924010 41.822479 -13.746902 -42.650403 5.002262 -0.748012 0.000000 0.000000 0.000000 
0.004697 0.951881 -0.046822 -3.311721 7.717061 10.185613 6.239288 -0.444672 -3.125531 5.229627 0.559968 -15.054779 -0.777953 6.590573 18.726368 0.000000 0.000000 0.000000 -2.103292 0.976600 -11.532145 -0.612166 0.024867 -1.064195 -2.320311 -9.271336 18.094747 0.000000 0.000000 0.000000 -2.252392 0.078923 0.420434 4.818613 -1.852488 -4.344680 2.907254 -7.490306 -11.365529 -2.304394 2.036290 -10.797229 0.000000 0.000000 0.000000 8.879729 -29.189750 9.146666 17.111415 -37.594976 -5.714624 45.014965 -11.754335 -3.381111 0.000000 0.000000 0.000000 -21.491017 34.669728 8.350370 -30.591492 42.679515 -13.457956 -43.566270 6.687214 -1.350491 0.000000 0.000000 0.000000 
0.004696 0.951588 -0.047471 -3.091563 8.078221 9.913477 6.287942 -0.438866 -2.909960 4.743032 0.540153 -15.107735 -0.980652 6.327249 18.619958 0.000000 0.000000 0.000000 -2.190630 0.927725 -10.987297 -0.834178 0.033199 -1.415804 -2.503722 -9.507144 18.048119 0.000000 0.000000 0.000000 -2.475568 0.083557 0.517952 5.018825 -1.975121 -3.967632 2.663671 -7.200252 -11.292716 -2.292193 2.061784 -11.167544 0.000000 0.000000 0.000000 8.206060 -29.227063 9.267006 16.919257 -38.565706 -5.928611 46.290445 -11.616155 -3.501143 0.000000 0.000000 0.000000 -19.165703 34.992521 8.794183 -29.108084 43.139541 -12.915384 -44.270483 8.446914 -2.000438 0.000000 0.000000 0.000000 
0.004886 0.951555 -0.047993 -3.012101 8.096957 9.793884 6.209010 -0.433363 -2.881839 4.695544 0.530763 -14.979362 -0.994178 6.291709 18.548359 0.000000 0.000000 0.000000 -2.418731 0.895452 -10.743455 -0.605198 -0.000636 -1.646636 -2.500041 -9.500305 18.076002 0.000000 0.000000 0.000000 -2.504330 0.083516 0.526956 4.980481 -1.984075 -3.718470 2.654793 -6.844145 -11.137548 -2.147863 1.994094 -11.236043 0.000000 0.000000 0.000000 7.407794 -29.636176 9.540236 16.594618 -38.695122 -5.915979 47.458128 -11.991467 -3.796562 0.000000 0.000000 0.000000 -17.937461 35.414697 9.090351 -28.179922 43.509526 -12.615573 -44.318664 9.283100 -2.295078 0.000000 0.000000 0.000000 
0.005120 0.951668 -0.048628 -2.827867 7.946676 9.728400 5.989882 -0.420309 -2.824587 4.660044 0.528106 -14.921620 -0.953414 6.342637 18.584401 0.000000 0.000000 0.000000 -2.486829 0.888975 -10.707219 -0.889853 0.028712 -1.633539 -2.435140 -9.411107 18.053013 0.000000 0.000000 0.000000 -2.474940 0.081716 0.524930 4.811337 -1.929377 -3.534541 2.557619 -6.379662 -10.987342 -1.799760 1.822409 -11.659575 0.000000 0.000000 0.000000 6.895606 -29.586165 9.600901 15.856636 -39.064611 -5.840959 48.520261 -12.934218 -4.326759 0.000000 0.000000 0.000000 -17.282682 35.541091 9.227023 -27.776699 43.632829 -12.414532 -43.272548 9.673345 -2.347234 0.000000 0.000000 0.000000 
